<svg width="322" height="319" viewBox="0 0 322 319" fill="none" xmlns="http://www.w3.org/2000/svg">
<path d="M153.616 168.044C146.524 151.03 145.316 105.293 197.22 58.4596C235.747 25.4378 238.383 7.49798 234.546 1.78584C234.33 1.51613 234.114 1.25249 233.9 0.995047C234.13 1.22599 234.347 1.48945 234.546 1.78584C249.48 20.4266 268.575 68.0679 231.385 105.984C203.51 134.403 147.452 141.858 153.616 168.044Z" fill="url(#paint0_linear)"/>
<path d="M134.65 186.002C135.614 162.321 159.019 108.351 244.931 81.9168C307.757 64.3255 320.561 44.8428 319.188 36.1026C319.082 35.6709 318.974 35.2469 318.864 34.8306C319.007 35.2245 319.116 35.6491 319.188 36.1026C326.483 65.9341 322.896 131.829 258.974 155.85C211.062 173.856 141.672 152.133 134.65 186.002Z" fill="url(#paint1_linear)"/>
<path d="M72.3496 94.9155C65.0533 91.8708 23.1614 75.693 0 70.2008C7.87966 63.7535 52.9084 80.91 60.3034 82.3299C68.3663 83.878 67.738 83.4536 101.719 83.4536C136.469 83.4536 136.82 119.63 137.536 129.659C138.252 139.689 148.281 134.964 182.665 177.588C212.714 212.023 249.887 296.283 270.952 319C266.177 314.344 210.236 260.721 191.649 257.458C144.729 249.219 89.8997 203.087 88.4671 156.881C87.0344 110.676 81.7813 98.8513 72.3496 94.9155Z" fill="black"/>
<defs>
<linearGradient id="paint0_linear" x1="232.84" y1="41.7626" x2="69.729" y2="204.085" gradientUnits="userSpaceOnUse">
<stop stop-color="#F9DA00"/>
<stop offset="1" stop-color="#F9DA00" stop-opacity="0"/>
</linearGradient>
<linearGradient id="paint1_linear" x1="290.778" y1="86.0471" x2="66.4988" y2="225.241" gradientUnits="userSpaceOnUse">
<stop stop-color="#308A2A"/>
<stop offset="1" stop-color="#6DFF9F" stop-opacity="0"/>
</linearGradient>
</defs>
</svg>
